<svg width="1024" height="1024" xmlns="http://www.w3.org/2000/svg">
  <defs>
    <radialGradient id="glow" cx="50%" cy="50%" r="50%">
      <stop offset="0%" stop-color="#8B5CF6" stop-opacity="0.15"/>
      <stop offset="100%" stop-color="#8B5CF6" stop-opacity="0"/>
    </radialGradient>
  </defs>
  <rect width="1024" height="1024" fill="#070714"/>
  <circle cx="512" cy="512" r="496" fill="url(#glow)"/>
  <circle cx="512" cy="512" r="450" fill="none" stroke="#F5C842" stroke-width="15" stroke-opacity="0.6"/>
  <circle cx="512" cy="512" r="348" fill="none" stroke="#F5C842" stroke-width="6" stroke-opacity="0.18"/>
  <line x1="512.0" y1="338.0" x2="512.0" y2="62.0" stroke="#F5C842" stroke-width="18" stroke-opacity="0.9" stroke-linecap="round"/>
  <line x1="686.0" y1="512.0" x2="962.0" y2="512.0" stroke="#F5C842" stroke-width="18" stroke-opacity="0.9" stroke-linecap="round"/>
  <line x1="512.0" y1="686.0" x2="512.0" y2="962.0" stroke="#F5C842" stroke-width="18" stroke-opacity="0.9" stroke-linecap="round"/>
  <line x1="338.0" y1="512.0" x2="62.0" y2="512.0" stroke="#F5C842" stroke-width="18" stroke-opacity="0.9" stroke-linecap="round"/>
  <line x1="670.5" y1="237.5" x2="737.0" y2="122.3" stroke="#F5C842" stroke-width="10" stroke-opacity="0.4" stroke-linecap="round"/>
  <line x1="786.5" y1="353.5" x2="901.7" y2="287.0" stroke="#F5C842" stroke-width="10" stroke-opacity="0.4" stroke-linecap="round"/>
  <line x1="786.5" y1="670.5" x2="901.7" y2="737.0" stroke="#F5C842" stroke-width="10" stroke-opacity="0.4" stroke-linecap="round"/>
  <line x1="670.5" y1="786.5" x2="737.0" y2="901.7" stroke="#F5C842" stroke-width="10" stroke-opacity="0.4" stroke-linecap="round"/>
  <line x1="353.5" y1="786.5" x2="287.0" y2="901.7" stroke="#F5C842" stroke-width="10" stroke-opacity="0.4" stroke-linecap="round"/>
  <line x1="237.5" y1="670.5" x2="122.3" y2="737.0" stroke="#F5C842" stroke-width="10" stroke-opacity="0.4" stroke-linecap="round"/>
  <line x1="237.5" y1="353.5" x2="122.3" y2="287.0" stroke="#F5C842" stroke-width="10" stroke-opacity="0.4" stroke-linecap="round"/>
  <line x1="353.5" y1="237.5" x2="287.0" y2="122.3" stroke="#F5C842" stroke-width="10" stroke-opacity="0.4" stroke-linecap="round"/>
  <line x1="512" y1="512" x2="246.1" y2="358.5" stroke="#F5C842" stroke-width="22" stroke-linecap="round"/>
  <line x1="512" y1="512" x2="591.7" y2="558.0" stroke="#F5C842" stroke-width="14" stroke-opacity="0.5" stroke-linecap="round"/>
  <polygon points="246.1,302.5 260.7,343.9 302.1,358.5 260.7,373.1 246.1,414.5 231.6,373.1 190.1,358.5 231.6,343.9" fill="#F5C842"/>
  <circle cx="512" cy="512" r="36" fill="#F5C842"/>
  <circle cx="512" cy="512" r="15" fill="white" fill-opacity="0.4"/>
</svg>